<?xml version="1.0" encoding="UTF-8" standalone="no"?>
<!-- Created with Inkscape (http://www.inkscape.org/) -->

<svg
   xmlns:dc="http://purl.org/dc/elements/1.1/"
   xmlns:cc="http://creativecommons.org/ns#"
   xmlns:rdf="http://www.w3.org/1999/02/22-rdf-syntax-ns#"
   xmlns:svg="http://www.w3.org/2000/svg"
   xmlns="http://www.w3.org/2000/svg"
   xmlns:xlink="http://www.w3.org/1999/xlink"
   xmlns:sodipodi="http://sodipodi.sourceforge.net/DTD/sodipodi-0.dtd"
   xmlns:inkscape="http://www.inkscape.org/namespaces/inkscape"
   id="svg2"
   version="1.1"
   inkscape:version="0.91 r13725"
   xml:space="preserve"
   width="730"
   height="545.46252"
   viewBox="0 0 730 545.46252"
   sodipodi:docname="OVMS_logo.svg"><metadata
     id="metadata8"><rdf:RDF><cc:Work
         rdf:about=""><dc:format>image/svg+xml</dc:format><dc:type
           rdf:resource="http://purl.org/dc/dcmitype/StillImage" /><dc:title></dc:title></cc:Work></rdf:RDF></metadata><defs
     id="defs6"><linearGradient
       inkscape:collect="always"
       id="linearGradient4316"><stop
         style="stop-color:#0000f9;stop-opacity:1"
         offset="0"
         id="stop4318" /><stop
         style="stop-color:#000000;stop-opacity:1"
         offset="1"
         id="stop4320" /></linearGradient><clipPath
       clipPathUnits="userSpaceOnUse"
       id="clipPath18"><path
         d="m 4118.16,0 -2430,0 c -290,0 -511.4,198.379 -511.4,498.379 l 0.74,1599.841 c 241.54,-77.43 511.99,-139.2 802.91,-181.73 216.31,-107.11 364.84,-330.03 364.85,-588.02 l 28.35,0.01 c -0.01,242.85 -126.2,455.93 -316.66,577.33 162.19,-21.57 330.45,-37.23 503.36,-46.37 92.47,-153.28 145.64,-332.99 145.65,-525.31 l 28.34,0 0,0 c 0.01,190.81 -50.97,369.66 -140.06,523.61 106.98,-5.12 215.62,-7.74 325.76,-7.74 54.92,0 109.55,0.66 163.73,1.95 55.17,-154.66 85.2,-321.29 85.21,-495.06 l 28.34,0 0,0 c 0.01,173.78 -29.5,340.66 -83.77,495.83 572.63,16.13 1100.29,103.31 1535.69,241.26 l 0,-1595.601 C 4649.2,226.031 4394.81,0 4118.16,0"
         id="path20"
         inkscape:connector-curvature="0" /></clipPath><linearGradient
       x1="0"
       y1="0"
       x2="1"
       y2="0"
       gradientUnits="userSpaceOnUse"
       gradientTransform="matrix(3472.44,0,0,-3472.44,1176.76,1736.22)"
       spreadMethod="pad"
       id="linearGradient22"><stop
         style="stop-opacity:1;stop-color:#14151d"
         offset="0"
         id="stop24" /><stop
         style="stop-opacity:1;stop-color:#14151d"
         offset="0.268834"
         id="stop26" /><stop
         style="stop-opacity:1;stop-color:#151a38"
         offset="0.813496"
         id="stop28" /><stop
         style="stop-opacity:1;stop-color:#151a38"
         offset="1"
         id="stop30" /></linearGradient><clipPath
       clipPathUnits="userSpaceOnUse"
       id="clipPath58"><path
         d="m 2920,1850 c -110.14,0 -218.78,2.62 -325.76,7.74 -45.85,79.23 -101.8,151.87 -166.08,216.15 -189.16,189.2 -450.72,306.17 -739.72,306.16 l -0.18,0 0.18,-18.66 0,-9.69 c 281.27,0 535.56,-113.75 719.67,-297.85 58.23,-58.24 109.42,-123.5 152.2,-194.41 -172.91,9.14 -341.17,24.8 -503.36,46.37 -106.11,67.63 -232.17,106.8 -367.47,106.8 l -0.38,-0.01 0.73,-28.33 -0.35,13.47 0,-13.48 c 104.52,0 203.29,-24.38 290.93,-67.77 -290.92,42.53 -561.37,104.3 -802.91,181.73 l 0.42,930.16 c -1.16,260 240.24,444.06 520.24,444.06 l 2420,0 c 290,0 531.04,-194.06 531.04,-444.06 l 0,-934.4 c -435.4,-137.95 -963.06,-225.13 -1535.69,-241.26 -75.09,214.73 -197.62,407.07 -355.03,564.48 -271.15,271.19 -646.01,438.84 -1060.25,438.83 l -0.16,0 0.2,-28.35 -0.04,5.37 0,-5.37 c 406.52,-0.01 774.1,-164.43 1040.21,-430.52 152.34,-152.37 271.37,-338.04 345.29,-545.21 -54.18,-1.29 -108.81,-1.95 -163.73,-1.95 m 1123.93,610.03 0.73,-1.36 1.46,-2.74 c 2.12,-3.78 3.45,-7.03 6.19,-11.2 3.24,-4.49 6.64,-8.96 10.15,-13.32 3.52,-4.16 7.39,-7.25 11.19,-10.79 3.66,-3.66 8.1,-6.2 12.38,-8.92 l 6.47,-3.95 6.81,-3.02 c 9.12,-4.08 18.42,-6.23 27.59,-7.89 6.32,-0.5 12.58,-1.17 18.63,-1.17 2.64,0 5.25,0.13 7.8,0.46 l 6.26,0.47 3.09,0.28 2.15,0.21 0.64,0.15 1.28,0.29 c 3.41,0.76 6.76,1.52 10.05,2.26 6.83,1.89 15.73,4.68 21.91,7.45 6.26,2.87 12.26,5.73 17.35,8.87 5.27,3.07 10.19,5.77 14.42,8.82 8.78,5.75 15.89,11.04 21.86,15.25 5.94,4.36 10.65,7.64 13.92,9.9 3.28,2.38 5.02,3.65 5.02,3.65 l -1.36,4.81 c 0,0 -2.21,-0.03 -6.34,-0.08 -4.18,-0.05 -10.3,-0.41 -17.84,-1.61 -7.65,-0.94 -16.65,-2.94 -26.59,-4.97 -9.97,-2.29 -20.8,-4.45 -31.97,-6.19 -5.79,-0.65 -9.54,-1.09 -15.94,-1.43 -3.38,-0.11 -6.82,-0.21 -10.31,-0.32 l -1.31,-0.05 -0.65,-0.01 c -0.02,-0.01 -0.03,-0.01 -0.03,-0.01 -0.01,0 0.42,0.05 0.84,0.09 0.41,0.04 0.82,0.08 0.78,0.08 -0.02,0 -0.12,0 -0.33,-0.02 l -0.14,0.01 -0.27,0.04 -2.19,0.23 -4.38,0.37 c -5.96,0.18 -11.54,1.78 -17.37,2.55 -5.4,1.98 -11.21,2.81 -16.26,5.47 l -4.06,1.43 -3.7,2.1 c -2.4,1.5 -5.3,2.35 -7.48,4.29 -2.23,1.74 -5.03,3.35 -7.1,5.04 -1.84,1.74 -3.8,3.41 -5.95,5.09 -2.27,2.27 -4.88,6.3 -7.32,9.38 l -1.86,2.49 -0.89,1.19 -2.08,3.51 c -2.74,5.28 -4.79,10.87 -5.32,16.73 -1.43,11.62 1.77,24.64 8.59,36.72 6.67,12.12 16.12,23.46 26.73,33.16 21.32,19.45 46.16,33.38 68.55,41.51 19.55,7.18 37.38,9.72 50.83,9.72 2.02,0 3.94,-0.06 5.75,-0.17 7.08,-0.45 12.12,-1.37 15.95,-2.39 3.76,-1.1 5.76,-1.68 5.76,-1.68 l 1.8,4.67 c 0,0 -1.88,0.91 -5.4,2.61 -3.48,1.62 -9.52,3.87 -16.84,5.55 -6.85,1.5 -15.27,2.78 -24.87,2.78 -0.8,0 -1.61,-0.01 -2.42,-0.03 -10.61,-0.09 -22.57,-1.27 -35.38,-3.92 -25.54,-5.33 -54.72,-16.14 -82.17,-35.77 -13.68,-9.78 -27.14,-21.75 -37.89,-37.43 -10.82,-15.28 -19.11,-35.29 -18.95,-57.01 -0.32,-10.84 2.26,-21.54 5.54,-31.61 l 2.91,-7.37 0.37,-0.92 0.2,-0.46 0.08,-0.23 c -0.11,0.19 -0.16,0.28 -0.17,0.28 0,0 0.27,-0.49 0.55,-0.97 0.26,-0.44 0.52,-0.89 0.55,-0.95 m -990.97,-58.56 c 1.2,0 2.39,-0.01 3.58,-0.02 1.2,-0.01 2.38,-0.02 3.56,-0.02 3.67,0 7.22,0.1 10.57,0.62 12.78,1.52 23.59,4.74 32.8,7.95 4.47,1.85 8.66,3.58 12.54,5.18 3.77,1.79 7.09,3.68 10.13,5.24 6.07,3.17 10.52,6.21 13.6,8.24 3.04,2.11 4.65,3.24 4.65,3.24 l -1.37,4.8 c 0,0 -1.95,0.16 -5.61,0.45 -3.64,0.28 -8.91,0.35 -15.47,0.7 -6.57,0.18 -14.4,0.56 -23.05,1.02 -4.22,0.36 -8.71,0.75 -13.44,1.15 -4.68,0.28 -9.24,1.65 -14.05,2.17 -4.76,0.78 -9.18,2.41 -13.89,3.46 -1.99,0.72 -3.45,1.62 -5.2,2.28 -1.88,0.94 -2.83,0.58 -6.07,2.64 -2.79,1.57 -5.6,3.16 -8.45,4.76 l -2.17,1.15 -0.01,0 c 0.22,-0.11 0.5,-0.26 0.79,-0.41 0.64,-0.33 1.28,-0.66 1.3,-0.66 0,0 -0.01,0 -0.04,0.02 l -0.08,0.07 -0.14,0.13 -0.29,0.28 -0.58,0.54 -2.37,2.11 c -3.27,2.33 -6.38,6.38 -9.69,9.83 -6.44,7.8 -12.51,17.48 -17.53,28.18 l -3.12,8.27 c -1.01,2.76 -1.24,4.82 -2.07,7.33 -0.96,1.9 -1.05,6 -1.2,9.68 l -0.27,5.42 0.1,0.95 0.2,2.33 0.86,9.41 c 0.39,3.1 1.39,5.91 2.01,8.92 0.96,6.2 3.97,11.23 6.05,16.87 5.67,10.26 13.4,19.3 22.84,26.75 9.75,7.05 20.74,12.49 31.89,16.63 5.55,2.12 11.25,3.64 16.7,5.31 5.6,1.22 10.98,2.71 16.29,3.62 21.19,3.97 39.64,4.94 52.41,5.65 12.87,0.69 20.35,0.74 20.35,0.74 l 0.34,4.99 c 0,0 -7.26,1.33 -20.25,3.11 -6.52,0.99 -14.46,1.79 -23.62,2.46 -7.32,0.47 -15.44,0.83 -24.27,0.83 -2.22,0 -4.49,-0.02 -6.8,-0.07 -5.74,-0.05 -11.75,-0.67 -18,-1.03 -6.23,-0.82 -12.75,-1.48 -19.41,-2.84 -13.38,-2.53 -27.41,-7.27 -41.39,-14.6 -13.7,-7.87 -27,-18.93 -36.96,-33.37 -4.16,-7.46 -9.22,-14.98 -11.73,-23.2 -1.41,-4.07 -3.19,-8.16 -4.24,-12.29 l -2.7,-12.49 -0.67,-3.14 -0.33,-1.57 -0.17,-0.79 -0.08,-0.39 -0.13,-1.91 -0.44,-5.54 c -0.26,-3.71 -0.78,-7 -0.39,-12.38 0.28,-4.77 0.39,-10.11 1.11,-14.48 l 2.32,-12.95 c 4.06,-16.94 10.98,-33.2 21.81,-47.18 2.81,-3.41 6.15,-6.56 9.22,-9.73 1.63,-1.54 2.99,-3.23 4.86,-4.58 l 5.7,-3.91 5.69,-3.74 1.41,-0.91 0.72,-0.45 0.35,-0.22 0.17,-0.11 2.31,-1.21 2.28,-0.91 c 3.07,-1.12 6.11,-2.23 9.1,-3.33 2.36,-1.09 7.76,-2.19 11.79,-3 4.25,-0.8 8.62,-1.7 12.48,-2.08 0.96,0.02 1.91,0.03 2.86,0.03 m 100.58,293.73 c -2.3,0 -4.59,-0.02 -6.88,-0.06 -9.03,-0.1 -17.97,-0.19 -26.81,-0.28 -8.87,-0.55 -17.64,-1.09 -26.28,-1.63 -8.63,-0.32 -17.17,-1.58 -25.57,-2.62 -8.39,-1.2 -16.67,-1.8 -24.74,-3.44 -16.08,-3.77 -31.78,-6.12 -46.24,-11.53 -7.27,-2.38 -14.39,-4.7 -21.35,-6.98 -6.74,-2.93 -13.2,-6.11 -19.53,-9.03 -6.42,-3.22 -12.24,-5.32 -18.63,-9.22 -5.38,-3.44 -10.61,-6.79 -15.68,-10.03 -10.21,-6.18 -19.38,-13.36 -27.83,-19.8 -8.43,-6.45 -16.16,-12.4 -22.57,-18.6 -12.75,-12.03 -22.5,-20.98 -29.75,-26.45 -3.66,-2.46 -6.49,-4.64 -8.56,-5.3 -2.06,-0.92 -3.12,-1.4 -3.12,-1.4 l 0.58,-2.95 c 0,0 1.26,0.33 3.72,0.98 2.63,0.46 5.8,2.19 10.2,4.22 8.45,4.36 19.67,12.69 33.51,22.64 6.7,5.07 14.87,9.75 23.65,14.98 8.69,5.34 17.87,11.21 28.85,16.44 5.34,2.76 10.85,5.62 16.53,8.56 4.72,2.41 11.47,4.44 17.33,6.77 6.12,2.23 12.3,4.69 18.74,6.9 6.63,1.68 13.41,3.39 20.34,5.15 27.64,7.09 58.73,10.37 91.76,11.74 8.8,0.36 17.75,0.51 26.85,0.51 25.08,0 51.24,-1.14 78.17,-2.2 9.24,-0.35 18.55,-0.7 27.93,-1.05 9.25,-0.61 18.56,-1.22 27.94,-1.84 18.77,-1.45 37.78,-1.88 57.04,-4.05 38.37,-3.39 77.74,-7.69 117.13,-11.91 19.64,-1.78 39.29,-3.56 58.85,-5.33 19.94,-1.71 39.65,-1.53 59.27,-2.37 9.8,-0.3 19.55,-0.6 29.26,-0.89 9.68,0.28 19.31,0.56 28.87,0.83 19.11,0.66 38,1.3 56.56,1.93 36.93,2.35 72.63,4.61 106.47,6.77 16.92,1.12 33.37,2.21 49.29,3.27 16.09,1.86 31.89,3.19 46.37,6.46 14.77,2.71 28.36,5.67 41.51,8.36 13.27,2.16 25.86,4.21 37.69,6.14 23.88,3.87 44.83,6.41 61.73,9.96 33.65,7.69 52.88,12.09 52.88,12.09 l -0.63,2.94 c 0,0 -19.37,-3.67 -53.3,-10.07 -16.99,-2.9 -37.79,-4.6 -61.48,-7.54 -12.15,-1.45 -24.69,-2.89 -38.12,-4.71 -13.36,-2.21 -27.58,-4.73 -42.01,-6.82 -14.54,-2.7 -29.54,-3.32 -45.19,-4.57 -15.94,-0.45 -32.43,-0.92 -49.37,-1.4 -33.86,-1.11 -69.57,-2.29 -106.51,-3.5 -18.4,-0.1 -37.1,-0.2 -56.04,-0.31 -9.45,-0.01 -18.96,-0.01 -28.52,-0.02 -9.52,0.57 -19.08,1.14 -28.68,1.7 -19.13,1.38 -38.63,1.76 -57.77,3.95 -19.51,2.33 -39.09,4.67 -58.68,7.01 -38.89,5.54 -77.8,10.86 -116.62,15.98 -19.26,2.88 -38.75,4.38 -57.89,6.1 -9.61,0.84 -19.15,1.67 -28.63,2.49 -9.37,0.54 -18.68,1.09 -27.91,1.62 -16.2,0.51 -32.27,1.41 -48.13,1.41 m 502.37,132.66 c 7.91,0 15.91,-1.59 23.96,-2.23 8.48,-1.04 17.07,-1.61 25.66,-3.02 8.61,-1.54 17.25,-3.08 25.95,-4.64 l 13.1,-2.25 13.1,-2.98 c 8.76,-1.99 17.55,-3.99 26.37,-5.99 8.82,-2.12 17.61,-4.65 26.44,-6.96 17.67,-4.59 35.41,-9.8 53.16,-14.85 17.87,-5.11 35.73,-10.23 53.52,-15.32 17.7,-4.67 35.64,-9.7 53.36,-14.01 35.39,-8.86 70.22,-17.59 103.92,-26.03 33.74,-8.19 66.5,-15.14 97.56,-22.01 31.03,-6.92 60.52,-12.84 87.36,-19.27 13.38,-3.33 26.57,-6.26 39.03,-9.05 12.53,-2.67 24.17,-4.25 35.55,-6.21 20.56,-2.9 39.11,-5.45 54.81,-5.45 1.24,0 2.47,0.01 3.68,0.05 16.44,0.08 29.46,3.53 37.39,7.79 7.99,4.52 10.51,8.3 10.85,8.3 0.01,0 0.01,-0.01 0.02,-0.01 l 0,0 0,0 -2.01,2.24 c -0.01,0 -0.01,0.01 -0.02,0.01 -0.26,0 -3.48,-3.92 -10.45,-7.38 -6.84,-3.33 -17.76,-5.96 -31.77,-5.96 -1.31,0 -2.64,0.02 -4,0.07 -15.99,0.21 -35.12,3.61 -57.4,7.69 -10.74,2.31 -22.83,4.47 -34.91,7.58 -12.09,3.24 -24.73,6.58 -38.13,10.49 -26.85,7.59 -56.06,14.7 -86.77,22.87 -30.71,8.22 -63.39,15.88 -96.77,25.17 -33.3,9.43 -67.72,19.17 -102.69,29.08 -17.53,4.82 -34.77,10.25 -52.56,15.52 -17.47,5.58 -35,11.18 -52.54,16.79 -17.65,5.7 -35.21,11.53 -53.04,16.84 -17.66,5.62 -35.55,10.59 -53.42,15.34 l -13.34,3.63 -13.52,2.93 c -9.02,1.9 -17.99,3.78 -26.92,5.65 -8.96,1.68 -18.09,2.54 -27.05,3.83 -9.02,0.92 -17.8,2.92 -26.83,2.92 -0.01,0 -0.02,0 -0.03,0 -8.99,0.23 -17.9,0.45 -26.73,0.68 l -6.6,0.15 -3.29,0.08 -0.83,0.02 -0.41,0.01 c -0.05,0 -0.08,0 -0.1,0 -0.05,0 -0.05,0 -0.05,0 0.01,0.01 0.01,0.01 -0.03,0.01 -0.08,0 -0.29,-0.01 -0.89,-0.04 l -1.58,-0.13 c -4.2,-0.35 -8.38,-0.7 -12.54,-1.04 -16.32,-0.76 -33.64,-4.06 -50.04,-6.94 -32.04,-7.14 -61.65,-15.77 -87.76,-27.08 -6.54,-2.76 -13.04,-5.21 -19.2,-8.05 -6.06,-3.07 -11.97,-6.07 -17.74,-9 -11.67,-5.54 -22.15,-11.96 -31.89,-18.11 -4.83,-3.13 -9.72,-5.77 -14.04,-9 -4.32,-3.21 -8.48,-6.31 -12.48,-9.28 -8.04,-6.05 -15.04,-11.51 -21.27,-16.66 -12.65,-10.07 -22.64,-18.5 -28.56,-25.17 -5.56,-6.93 -8.53,-10.62 -8.53,-10.62 l 2.36,-1.85 c 0,0 3.4,3 9.78,8.64 3.19,2.74 7.81,5.49 12.74,9.1 5.18,3.43 11.45,7.06 18.33,11.31 6.91,4.3 14.8,8.81 23.04,13.51 4.11,2.43 8.4,4.95 12.84,7.58 4.43,2.62 9.45,4.67 14.38,7.14 9.99,4.78 20.37,10.23 32.05,14.49 5.75,2.31 11.64,4.68 17.65,7.1 6.16,2.07 12.46,4.2 18.89,6.37 25.58,8.92 54.35,15.5 84.56,21.02 15.05,1.74 29.89,4.41 46.99,4.87 4.16,0.23 8.35,0.47 12.56,0.72 l 1.01,0.05 c 0,0 0.03,0 0.07,0 0.03,0 0.06,0 0.09,0 0.09,0 0.19,0 0.13,-0.01 l 0.38,0 0.76,-0.03 3.06,-0.1 6.13,-0.19 c 8.19,-0.25 16.48,-0.49 24.81,-0.74 0.45,0.01 0.89,0.02 1.33,0.02"
         id="path60"
         inkscape:connector-curvature="0" /></clipPath><linearGradient
       x1="0"
       y1="0"
       x2="1"
       y2="0"
       gradientUnits="userSpaceOnUse"
       gradientTransform="matrix(3472.44,0,0,-3472.44,1176.76,1736.22)"
       spreadMethod="pad"
       id="linearGradient62"><stop
         style="stop-opacity:1;stop-color:#1b1d33"
         offset="0"
         id="stop64" /><stop
         style="stop-opacity:1;stop-color:#1b1d33"
         offset="0.268834"
         id="stop66" /><stop
         style="stop-opacity:1;stop-color:#222351"
         offset="0.813496"
         id="stop68" /><stop
         style="stop-opacity:1;stop-color:#222351"
         offset="1"
         id="stop70" /></linearGradient><linearGradient
       inkscape:collect="always"
       xlink:href="#linearGradient4316"
       id="linearGradient4322"
       x1="306.91867"
       y1="-212.95488"
       x2="306.91867"
       y2="-419.25513"
       gradientUnits="userSpaceOnUse"
       gradientTransform="translate(0,-7.9953369)" /></defs><sodipodi:namedview
     pagecolor="#ffffff"
     bordercolor="#666666"
     borderopacity="1"
     objecttolerance="10"
     gridtolerance="10"
     guidetolerance="10"
     inkscape:pageopacity="0"
     inkscape:pageshadow="2"
     inkscape:window-width="1591"
     inkscape:window-height="993"
     id="namedview4"
     showgrid="false"
     inkscape:zoom="0.70710678"
     inkscape:cx="268.19757"
     inkscape:cy="295.59832"
     inkscape:window-x="0"
     inkscape:window-y="27"
     inkscape:window-maximized="0"
     inkscape:current-layer="g10" /><g
     id="g10"
     inkscape:groupmode="layer"
     inkscape:label="ink_ext_XXXXXX"
     transform="matrix(1.25,0,0,-1.25,0,545.4625)"><rect
       style="opacity:1;fill:url(#linearGradient4322);fill-opacity:1;stroke:#000000;stroke-width:0.08;stroke-linecap:butt;stroke-linejoin:miter;stroke-miterlimit:4;stroke-dasharray:none;stroke-dashoffset:0;stroke-opacity:1"
       id="rect3499"
       width="409.51999"
       height="409.51999"
       x="83.206154"
       y="-427.68494"
       transform="scale(1,-1)"
       rx="0"
       ry="0" /><g
       id="g3501"
       transform="translate(-2.7283516,32)"><path
         d="m 177.43,131.626 c 0,-5.227 -4.238,-9.465 -9.465,-9.465 -5.227,0 -9.464,4.238 -9.464,9.465 0,5.226 4.237,9.464 9.464,9.464 5.227,0 9.465,-4.238 9.465,-9.464"
         style="fill:#7a7878;fill-opacity:1;fill-rule:evenodd;stroke:none"
         id="path42"
         inkscape:connector-curvature="0" /><path
         d="M 178.813,144.308 137.44,144.28 c 0,0 -9.474,10.863 -9.576,11.513 l 61.366,0.041 -10.417,-11.526 z m -50.061,-56.901 -0.789,43.008 9.825,0.005 0.745,-33.0259 39.177,0.0258 1.123,33.0281 9.823,0.009 -1.08,-43.007 -58.824,-0.043"
         style="fill:#141315;fill-opacity:1;fill-rule:nonzero;stroke:none"
         id="path88"
         inkscape:connector-curvature="0" /><path
         d="m 247.52,87.7352 -13.297,0.25 -25.392,66.8848 13.29,-0.829 18.893,-52.251 22.26,53.122 12.315,0.753 -28.069,-67.9298"
         style="fill:#141315;fill-opacity:1;fill-rule:nonzero;stroke:none"
         id="path90"
         inkscape:connector-curvature="0" /><path
         d="m 345.757,143.659 -12.29,-19.792 -12.5,19.695 7.681,0.03 -24.966,-0.098 -1.856,-56.51 -9.826,-0.041 1.924,69.056 30.441,0.122 9.376,-13.472 8.752,13.553 30.691,0.123 2.404,-68.9 -9.821,-0.0379 -2.33,56.3419 -24.966,-0.098 7.286,0.028"
         style="fill:#141315;fill-opacity:1;fill-rule:nonzero;stroke:none"
         id="path92"
         inkscape:connector-curvature="0" /><path
         d="m 443.087,144.274 -41.375,0.047 c 0,0 -9.452,10.882 -9.554,11.531 l 61.367,-0.069 -10.438,-11.509 z m 9.089,-56.6201 -58.702,-0.1848 -0.404,11.5899 49.43,-0.5449 -0.246,18.9549 -48.88,-0.155 -0.029,21.544 9.692,-8.351 48.999,0.155 0.14,-43.0081"
         style="fill:#141315;fill-opacity:1;fill-rule:nonzero;stroke:none"
         id="path94"
         inkscape:connector-curvature="0" /><path
         d="m 187.561,152.676 -39.948,-0.027 c 0,0 -9.148,10.487 -9.247,11.114 l 59.254,0.041 -10.059,-11.128 z m -48.337,-54.9291 -0.758,42.3691 11.248,0.339 0.717,-32.732 36.065,-0.31 1.084,31.884 9.486,0.008 -1.044,-41.5171 -56.798,-0.041"
         style="fill:#a8a8a6;fill-opacity:1;fill-rule:nonzero;stroke:none"
         id="path96"
         inkscape:connector-curvature="0" /><path
         d="m 251.653,98.0641 -12.479,0.241 -23.828,64.5669 12.472,-0.799 17.729,-50.441 20.889,51.281 11.557,0.727 -26.34,-65.5759"
         style="fill:#a8a8a6;fill-opacity:1;fill-rule:nonzero;stroke:none"
         id="path98"
         inkscape:connector-curvature="0" /><path
         d="m 343.19,152.051 -11.86,-19.106 -12.067,19.012 7.413,0.029 -22.522,-0.26 -1.793,-54.5522 -11.058,0.1262 1.856,66.662 30.733,0.2 9.052,-13.005 7.095,13.002 29.626,0.118 2.32,-66.5129 -11.7,-0.036 -2.247,54.3899 -21.88,-0.095 7.032,0.028"
         style="fill:#a8a8a6;fill-opacity:1;fill-rule:nonzero;stroke:none"
         id="path100"
         inkscape:connector-curvature="0" /><path
         d="m 433.981,152.644 -39.591,0.045 c 0,0 -9.045,10.505 -9.142,11.132 l 58.721,-0.067 -9.988,-11.11 z m 8.698,-54.6581 -56.172,-0.1789 -0.387,11.189 47.299,-0.526 -0.233,18.297 -46.776,-0.149 0.256,22.787 9.799,-9.457 46.079,0.329 0.135,-42.2911"
         style="fill:#a8a8a6;fill-opacity:1;fill-rule:nonzero;stroke:none"
         id="path102"
         inkscape:connector-curvature="0" /><path
         d="m 186.064,152.976 -38.538,-0.026 c 0,0 -8.825,10.259 -8.921,10.873 l 57.164,0.039 -9.705,-10.886 z m -46.63,-53.7362 -0.736,40.6172 9.151,0.004 0.695,-31.189 36.493,0.025 1.046,31.191 9.151,0.008 -1.007,-40.6151 -54.793,-0.0411"
         style="fill:#ffffff;fill-opacity:1;fill-rule:nonzero;stroke:none"
         id="path104"
         inkscape:connector-curvature="0" /><path
         d="m 250.065,99.55 -12.387,0.2359 -23.653,63.1651 12.381,-0.783 17.598,-49.344 20.735,50.167 11.472,0.71 -26.146,-64.151"
         style="fill:#ffffff;fill-opacity:1;fill-rule:nonzero;stroke:none"
         id="path106"
         inkscape:connector-curvature="0" /><path
         d="m 341.572,152.364 -11.447,-18.691 -11.645,18.599 7.154,0.029 -23.256,-0.093 -1.728,-53.367 -9.152,-0.0379 1.791,65.2139 28.355,0.115 8.734,-12.722 8.153,12.799 28.59,0.116 2.238,-65.068 -9.149,-0.0359 -2.169,53.2089 -23.256,-0.093 6.787,0.027"
         style="fill:#ffffff;fill-opacity:1;fill-rule:nonzero;stroke:none"
         id="path108"
         inkscape:connector-curvature="0" /><path
         d="m 432.234,152.945 -38.541,0.044 c 0,0 -8.805,10.276 -8.899,10.889 l 57.163,-0.065 -9.723,-10.868 z m 8.467,-53.4712 -54.682,-0.175 -0.377,10.9462 46.045,-0.515 -0.229,17.9 -45.533,-0.146 -0.025,20.345 9.027,-7.886 45.643,0.147 0.131,-40.6162"
         style="fill:#ffffff;fill-opacity:1;fill-rule:nonzero;stroke:none"
         id="path110"
         inkscape:connector-curvature="0" /></g><g
       id="g3489"
       transform="matrix(1.8787233,0,0,1.8787233,-375.04113,216.58791)"><path
         inkscape:connector-curvature="0"
         id="path3473"
         style="fill:#ffffff;fill-opacity:1;fill-rule:nonzero;stroke:none"
         d="m 395.2701,44.437401 c 0,0 -1.923,-0.44 -5.288,-1.209 -1.69,-0.355 -3.785,-0.609 -6.173,-0.996 -1.183,-0.193 -2.442,-0.398 -3.769,-0.614 -1.315,-0.269 -2.674,-0.565 -4.151,-0.836 -1.448,-0.327 -3.028,-0.46 -4.637,-0.646 -1.592,-0.106 -3.237,-0.215 -4.929,-0.327 -3.384,-0.216 -6.954,-0.442 -10.647,-0.677 -1.856,-0.063 -3.745,-0.127 -5.656,-0.193 -0.956,-0.027 -1.919,-0.055 -2.887,-0.083 -0.971,0.029 -1.946,0.059 -2.926,0.089 -1.962,0.084 -3.933,0.066 -5.927,0.237 -1.956,0.177 -3.921,0.355 -5.885,0.533 -3.939,0.422 -7.876,0.852 -11.713,1.191 -1.926,0.217 -3.827,0.26 -5.704,0.405 -0.938,0.062 -1.869,0.123 -2.794,0.184 -0.938,0.035 -1.869,0.07 -2.793,0.105 -3.67,0.144 -7.195,0.304 -10.502,0.169 -3.303,-0.137 -6.412,-0.465 -9.176,-1.174 -0.693,-0.176 -1.371,-0.347 -2.034,-0.515 -0.644,-0.221 -1.262,-0.467 -1.874,-0.69 -0.586,-0.233 -1.261,-0.436 -1.733,-0.677 -0.568,-0.294 -1.119,-0.58 -1.653,-0.856 -1.098,-0.523 -2.016,-1.11 -2.885,-1.644 -0.878,-0.523 -1.695,-0.991 -2.365,-1.498 -1.384,-0.995 -2.506,-1.828 -3.351,-2.264 -0.44,-0.203 -0.757,-0.376 -1.02,-0.422 -0.246,-0.065 -0.372,-0.098 -0.372,-0.098 l -0.058,0.295 c 0,0 0.106,0.048 0.312,0.14 0.207,0.066 0.49,0.284 0.856,0.53 0.725,0.547 1.7,1.442 2.975,2.645 0.641,0.62 1.414,1.215 2.257,1.86 0.845,0.644 1.762,1.362 2.783,1.98 0.507,0.324 1.03,0.659 1.568,1.003 0.639,0.39 1.221,0.6 1.863,0.922 0.633,0.292 1.279,0.61 1.953,0.903 0.696,0.228 1.408,0.46 2.135,0.698 1.446,0.541 3.016,0.776 4.624,1.153 0.807,0.164 1.635,0.224 2.474,0.344 0.84,0.104 1.694,0.23 2.557,0.262 0.864,0.054 1.741,0.108 2.628,0.163 0.884,0.009 1.778,0.018 2.681,0.028 1.809,0.032 3.647,-0.076 5.501,-0.135 0.923,-0.053 1.854,-0.108 2.791,-0.162 0.948,-0.082 1.902,-0.165 2.863,-0.249 1.914,-0.172 3.863,-0.322 5.789,-0.61 3.882,-0.512 7.773,-1.044 11.662,-1.598 1.959,-0.234 3.917,-0.468 5.868,-0.701 1.914,-0.219 3.864,-0.257 5.777,-0.395 0.96,-0.056 1.916,-0.113 2.868,-0.17 0.956,10e-4 1.907,10e-4 2.852,0.002 1.894,0.011 3.764,0.021 5.604,0.031 3.694,0.121 7.265,0.239 10.651,0.35 1.694,0.048 3.343,0.095 4.937,0.14 1.565,0.125 3.065,0.187 4.519,0.457 1.443,0.209 2.865,0.461 4.201,0.682 1.343,0.182 2.597,0.326 3.812,0.471 2.369,0.294 4.449,0.464 6.148,0.754 3.393,0.64 5.33,1.007 5.33,1.007 l 0.063,-0.294" /><path
         inkscape:connector-curvature="0"
         id="path3475"
         style="fill:#ffffff;fill-opacity:1;fill-rule:nonzero;stroke:none"
         d="m 433.4381,43.715401 c -0.025,0.018 -0.269,-0.366 -1.087,-0.829 -0.793,-0.426 -2.095,-0.771 -3.739,-0.779 -1.646,-0.045 -3.63,0.227 -5.849,0.54 -1.138,0.196 -2.302,0.354 -3.555,0.621 -1.246,0.279 -2.565,0.572 -3.903,0.905 -2.684,0.643 -5.633,1.235 -8.736,1.927 -3.106,0.687 -6.382,1.382 -9.756,2.201 -3.37,0.844 -6.853,1.717 -10.392,2.603 -1.772,0.431 -3.566,0.934 -5.336,1.401 -1.779,0.509 -3.565,1.021 -5.352,1.532 -1.775,0.505 -3.549,1.026 -5.316,1.485 -0.883,0.231 -1.762,0.484 -2.644,0.696 -0.882,0.2 -1.761,0.4 -2.637,0.599 l -1.31,0.298 -1.31,0.225 c -0.87,0.156 -1.734,0.31 -2.595,0.464 -0.859,0.141 -1.718,0.198 -2.566,0.302 -0.85,0.067 -1.694,0.241 -2.529,0.221 -0.833,0.025 -1.662,0.049 -2.481,0.074 l -0.613,0.019 -0.306,0.01 -0.076,0.003 -0.038,0 c 0.006,10e-4 -0.004,10e-4 -0.013,10e-4 -0.018,0 -0.038,0 0.041,0.003 l -0.158,-0.008 c -0.421,-0.025 -0.84,-0.049 -1.256,-0.072 -1.71,-0.046 -3.194,-0.313 -4.699,-0.487 -3.021,-0.552 -5.898,-1.21 -8.456,-2.102 -0.643,-0.217 -1.273,-0.43 -1.889,-0.637 -0.601,-0.242 -1.19,-0.479 -1.765,-0.71 -1.168,-0.426 -2.206,-0.971 -3.205,-1.449 -0.493,-0.247 -0.995,-0.452 -1.438,-0.714 -0.444,-0.263 -0.873,-0.515 -1.284,-0.758 -0.824,-0.47 -1.613,-0.921 -2.304,-1.351 -0.688,-0.425 -1.315,-0.788 -1.833,-1.131 -0.493,-0.361 -0.955,-0.636 -1.274,-0.91 -0.638,-0.564 -0.978,-0.864 -0.978,-0.864 l -0.236,0.185 c 0,0 0.297,0.369 0.853,1.062 0.592,0.667 1.591,1.51 2.856,2.517 0.623,0.515 1.323,1.061 2.127,1.666 0.4,0.297 0.816,0.607 1.248,0.928 0.432,0.323 0.921,0.587 1.404,0.9 0.974,0.615 2.022,1.257 3.189,1.811 0.577,0.293 1.168,0.593 1.774,0.9 0.616,0.284 1.266,0.529 1.92,0.805 2.611,1.131 5.572,1.994 8.776,2.708 1.64,0.288 3.372,0.618 5.004,0.694 0.416,0.034 0.834,0.069 1.254,0.104 l 0.158,0.013 c 0.094,0.005 0.093,0.004 0.092,0.003 0,0 -10e-4,-10e-4 0.015,0 l 0.041,-10e-4 0.083,-0.002 0.329,-0.008 0.66,-0.015 c 0.883,-0.023 1.774,-0.045 2.673,-0.068 0.904,0 1.783,-0.2 2.686,-0.292 0.896,-0.129 1.809,-0.215 2.705,-0.383 0.893,-0.187 1.79,-0.375 2.692,-0.565 l 1.352,-0.293 1.334,-0.363 c 1.787,-0.475 3.576,-0.972 5.342,-1.534 1.783,-0.531 3.539,-1.114 5.304,-1.684 1.754,-0.561 3.507,-1.121 5.254,-1.679 1.779,-0.527 3.503,-1.07 5.256,-1.552 3.497,-0.991 6.939,-1.965 10.269,-2.908 3.338,-0.929 6.606,-1.695 9.677,-2.517 3.071,-0.817 5.992,-1.528 8.677,-2.287 1.34,-0.391 2.604,-0.725 3.813,-1.049 1.208,-0.311 2.417,-0.527 3.491,-0.758 2.228,-0.408 4.141,-0.748 5.74,-0.769 1.593,-0.056 2.829,0.225 3.577,0.589 0.72,0.357 1.039,0.763 1.047,0.737 l 0.201,-0.224" /><path
         inkscape:connector-curvature="0"
         id="path3477"
         style="fill:#7a7878;fill-opacity:1;fill-rule:nonzero;stroke:none"
         d="m 306.3701,37.788401 c 0,0 -0.748,-0.005 -2.035,-0.074 -1.277,-0.071 -3.122,-0.168 -5.241,-0.565 -0.531,-0.091 -1.069,-0.24 -1.629,-0.362 -0.545,-0.167 -1.115,-0.319 -1.67,-0.531 -1.115,-0.414 -2.214,-0.958 -3.189,-1.663 -0.944,-0.745 -1.717,-1.649 -2.284,-2.675 -0.208,-0.564 -0.509,-1.067 -0.605,-1.687 -0.062,-0.301 -0.162,-0.582 -0.201,-0.892 l -0.086,-0.941 -0.02,-0.233 -0.012,-0.117 -0.005,-0.058 -0.003,-0.029 c -0.001,-0.017 0.002,0.035 0.005,0.087 0.004,0.067 0.008,0.134 0.004,0.053 l 0.001,-0.018 0.027,-0.555 c 0.015,-0.368 0.024,-0.778 0.12,-0.968 0.083,-0.251 0.106,-0.457 0.207,-0.733 l 0.312,-0.827 c 0.502,-1.07 1.109,-2.038 1.753,-2.818 0.331,-0.345 0.642,-0.75 0.969,-0.983 l 0.237,-0.211 0.058,-0.054 0.029,-0.028 0.014,-0.013 0.008,-0.007 c 0.021,-0.012 -0.053,0.026 -0.126,0.064 -0.095,0.05 -0.189,0.099 -0.078,0.041 l 0.217,-0.115 c 0.285,-0.16 0.566,-0.319 0.845,-0.476 0.324,-0.206 0.419,-0.17 0.607,-0.264 0.175,-0.066 0.321,-0.156 0.52,-0.228 0.471,-0.105 0.913,-0.268 1.389,-0.346 0.481,-0.052 0.937,-0.189 1.405,-0.217 0.473,-0.04 0.922,-0.079 1.344,-0.115 0.865,-0.046 1.648,-0.084 2.305,-0.102 0.656,-0.035 1.183,-0.042 1.547,-0.07 0.366,-0.029 0.561,-0.045 0.561,-0.045 l 0.137,-0.48 c 0,0 -0.161,-0.113 -0.465,-0.324 -0.308,-0.203 -0.753,-0.507 -1.36,-0.824 -0.304,-0.156 -0.636,-0.345 -1.013,-0.524 -0.388,-0.16 -0.807,-0.333 -1.254,-0.518 -0.921,-0.321 -2.002,-0.643 -3.28,-0.795 -0.442,-0.069 -0.919,-0.065 -1.413,-0.06 -0.212,0.002 -0.427,0.003 -0.644,-10e-4 -0.386,0.038 -0.823,0.128 -1.248,0.208 -0.403,0.081 -0.943,0.191 -1.179,0.3 -0.299,0.11 -0.603,0.221 -0.91,0.333 l -0.228,0.091 -0.231,0.121 -0.017,0.011 -0.035,0.022 -0.072,0.045 -0.141,0.091 -0.569,0.374 -0.57,0.391 c -0.187,0.135 -0.323,0.304 -0.486,0.458 -0.307,0.317 -0.641,0.632 -0.922,0.973 -1.083,1.398 -1.775,3.024 -2.181,4.718 l -0.232,1.295 c -0.072,0.437 -0.083,0.971 -0.111,1.448 -0.039,0.538 0.013,0.867 0.039,1.238 l 0.044,0.554 0.013,0.191 0.008,0.039 0.017,0.079 0.033,0.157 0.067,0.314 0.27,1.249 c 0.105,0.413 0.283,0.822 0.424,1.229 0.251,0.822 0.757,1.574 1.173,2.32 0.996,1.444 2.326,2.55 3.696,3.337 1.398,0.733 2.801,1.207 4.139,1.46 0.666,0.136 1.318,0.202 1.941,0.284 0.625,0.036 1.226,0.098 1.8,0.103 1.149,0.025 2.19,-0.018 3.107,-0.076 0.916,-0.067 1.71,-0.147 2.362,-0.246 1.299,-0.178 2.025,-0.311 2.025,-0.311 l -0.034,-0.499" /><path
         inkscape:connector-curvature="0"
         id="path3479"
         style="fill:#7a7878;fill-opacity:1;fill-rule:nonzero;stroke:none"
         d="m 414.9701,37.424401 c 0,0 -0.2,0.058 -0.576,0.168 -0.383,0.102 -0.887,0.194 -1.595,0.239 -1.389,0.082 -3.41,-0.129 -5.658,-0.955 -2.239,-0.813 -4.723,-2.206 -6.855,-4.151 -1.061,-0.97 -2.006,-2.104 -2.673,-3.316 -0.682,-1.208 -1.002,-2.51 -0.859,-3.672 0.053,-0.586 0.258,-1.145 0.532,-1.673 l 0.231,-0.389 0.027,-0.049 0.015,-0.024 0.007,-0.012 c 0.042,-0.074 0.006,-0.012 -0.029,0.049 -0.029,0.048 -0.056,0.096 -0.047,0.079 l 0.093,-0.124 0.186,-0.249 c 0.244,-0.308 0.505,-0.711 0.732,-0.938 0.215,-0.168 0.411,-0.335 0.595,-0.509 0.207,-0.169 0.487,-0.33 0.71,-0.504 0.218,-0.194 0.508,-0.279 0.748,-0.429 l 0.37,-0.21 0.406,-0.143 c 0.505,-0.266 1.086,-0.349 1.626,-0.547 0.583,-0.077 1.141,-0.237 1.737,-0.255 l 0.438,-0.037 0.219,-0.023 0.027,-0.004 0.014,-10e-4 c 0.071,0.006 0.014,0 -0.045,-0.006 -0.048,-0.005 -0.097,-0.01 -0.081,-0.008 l 0.065,10e-4 0.131,0.005 c 0.349,0.011 0.693,0.021 1.031,0.032 0.64,0.034 1.015,0.078 1.594,0.143 1.117,0.174 2.2,0.39 3.197,0.619 0.994,0.203 1.894,0.403 2.659,0.497 0.754,0.12 1.366,0.156 1.784,0.161 0.413,0.005 0.634,0.008 0.634,0.008 l 0.136,-0.481 c 0,0 -0.174,-0.127 -0.502,-0.365 -0.327,-0.226 -0.798,-0.554 -1.392,-0.99 -0.597,-0.421 -1.308,-0.95 -2.186,-1.525 -0.423,-0.305 -0.915,-0.575 -1.442,-0.882 -0.509,-0.314 -1.109,-0.6 -1.735,-0.887 -0.618,-0.277 -1.508,-0.556 -2.191,-0.745 -0.329,-0.074 -0.664,-0.15 -1.005,-0.226 l -0.128,-0.029 -0.064,-0.015 -0.215,-0.021 -0.309,-0.028 -0.626,-0.047 c -0.837,-0.108 -1.735,-10e-4 -2.643,0.071 -0.917,0.166 -1.847,0.381 -2.759,0.789 l -0.681,0.302 -0.647,0.395 c -0.428,0.272 -0.872,0.526 -1.238,0.892 -0.38,0.354 -0.767,0.663 -1.119,1.079 -0.351,0.436 -0.691,0.883 -1.015,1.332 -0.274,0.417 -0.407,0.742 -0.619,1.12 l -0.146,0.274 -0.073,0.137 c 0.006,-0.012 -0.024,0.041 -0.055,0.094 -0.039,0.068 -0.078,0.136 -0.038,0.069 l -0.008,0.023 -0.02,0.046 -0.037,0.092 -0.291,0.737 c -0.328,1.007 -0.586,2.077 -0.554,3.161 -0.016,2.172 0.813,4.173 1.895,5.701 1.075,1.568 2.421,2.765 3.789,3.743 2.745,1.963 5.663,3.044 8.217,3.577 1.281,0.265 2.477,0.383 3.538,0.392 1.06,0.024 1.987,-0.113 2.729,-0.275 0.732,-0.168 1.336,-0.393 1.684,-0.555 0.352,-0.17 0.54,-0.261 0.54,-0.261 l -0.18,-0.467" /><path
         inkscape:connector-curvature="0"
         id="path3481"
         style="fill:#ffffff;fill-opacity:1;fill-rule:nonzero;stroke:none"
         d="m 272.4261,31.931401 -0.058,0.295 c 0,0 0.106,0.048 0.312,0.14 0.207,0.066 0.49,0.284 0.856,0.53 0.725,0.547 1.7,1.442 2.975,2.645 0.641,0.62 1.414,1.215 2.257,1.86 0.845,0.644 1.762,1.362 2.783,1.98 0.507,0.324 1.03,0.659 1.568,1.003 0.639,0.39 1.221,0.6 1.863,0.922 0.633,0.292 1.279,0.61 1.953,0.903 0.696,0.228 1.408,0.46 2.135,0.698 1.446,0.541 3.016,0.776 4.624,1.153 0.807,0.164 1.635,0.224 2.474,0.344 0.84,0.104 1.694,0.23 2.557,0.262 0.864,0.054 1.741,0.108 2.628,0.163 0.884,0.009 1.778,0.018 2.681,0.028 0.229,0.004 0.458,0.006 0.688,0.006 1.586,0 3.193,-0.09 4.813,-0.141 0.923,-0.053 1.854,-0.108 2.791,-0.162 0.948,-0.082 1.902,-0.165 2.863,-0.249 1.914,-0.172 3.863,-0.322 5.789,-0.61 3.882,-0.512 7.773,-1.044 11.662,-1.598 1.959,-0.234 3.917,-0.468 5.868,-0.701 1.914,-0.219 3.864,-0.257 5.777,-0.395 0.96,-0.056 1.916,-0.113 2.868,-0.17 0.956,10e-4 1.907,10e-4 2.852,0.002 1.894,0.011 3.764,0.021 5.604,0.031 3.694,0.121 7.265,0.239 10.651,0.35 1.694,0.048 3.343,0.095 4.937,0.14 1.565,0.125 3.065,0.187 4.519,0.457 1.443,0.209 2.865,0.461 4.201,0.682 1.343,0.182 2.597,0.326 3.812,0.471 2.369,0.294 4.449,0.464 6.148,0.754 3.393,0.64 5.33,1.007 5.33,1.007 l 0.063,-0.294 c 0,0 -1.923,-0.44 -5.288,-1.209 -1.69,-0.355 -3.785,-0.609 -6.173,-0.996 -1.183,-0.193 -2.442,-0.398 -3.769,-0.614 -1.315,-0.269 -2.674,-0.565 -4.151,-0.836 -1.448,-0.327 -3.028,-0.46 -4.637,-0.646 -1.592,-0.106 -3.237,-0.215 -4.929,-0.327 -3.384,-0.216 -6.954,-0.442 -10.647,-0.677 -1.856,-0.063 -3.745,-0.127 -5.656,-0.193 -0.956,-0.027 -1.919,-0.055 -2.887,-0.083 -0.971,0.029 -1.946,0.059 -2.926,0.089 -1.962,0.084 -3.933,0.066 -5.927,0.237 -1.956,0.177 -3.921,0.355 -5.885,0.533 -3.939,0.422 -7.876,0.852 -11.713,1.191 -1.926,0.217 -3.827,0.26 -5.704,0.405 -0.938,0.062 -1.869,0.123 -2.794,0.184 -0.938,0.035 -1.869,0.07 -2.793,0.105 -2.693,0.106 -5.309,0.22 -7.817,0.22 -0.91,0 -1.805,-0.015 -2.685,-0.051 -3.303,-0.137 -6.412,-0.465 -9.176,-1.174 -0.693,-0.176 -1.371,-0.347 -2.034,-0.515 -0.644,-0.221 -1.262,-0.467 -1.874,-0.69 -0.586,-0.233 -1.261,-0.436 -1.733,-0.677 -0.568,-0.294 -1.119,-0.58 -1.653,-0.856 -1.098,-0.523 -2.016,-1.11 -2.885,-1.644 -0.878,-0.523 -1.695,-0.991 -2.365,-1.498 -1.384,-0.995 -2.506,-1.828 -3.351,-2.264 -0.44,-0.203 -0.757,-0.376 -1.02,-0.422 -0.246,-0.065 -0.372,-0.098 -0.372,-0.098" /><path
         inkscape:connector-curvature="0"
         id="path3483"
         style="fill:#ffffff;fill-opacity:1;fill-rule:nonzero;stroke:none"
         d="m 428.2441,42.102401 c -1.57,0 -3.425,0.255 -5.481,0.545 -1.138,0.196 -2.302,0.354 -3.555,0.621 -1.246,0.279 -2.565,0.572 -3.903,0.905 -2.684,0.643 -5.633,1.235 -8.736,1.927 -3.106,0.687 -6.382,1.382 -9.756,2.201 -3.37,0.844 -6.853,1.717 -10.392,2.603 -1.772,0.431 -3.566,0.934 -5.336,1.401 -1.779,0.509 -3.565,1.021 -5.352,1.532 -1.775,0.505 -3.549,1.026 -5.316,1.485 -0.883,0.231 -1.762,0.484 -2.644,0.696 -0.882,0.2 -1.761,0.4 -2.637,0.599 l -1.31,0.298 -1.31,0.225 c -0.87,0.156 -1.734,0.31 -2.595,0.464 -0.859,0.141 -1.718,0.198 -2.566,0.302 -0.805,0.064 -1.605,0.223 -2.396,0.223 -0.044,0 -0.088,-0.001 -0.133,-0.002 -0.833,0.025 -1.662,0.049 -2.481,0.074 l -0.613,0.019 -0.306,0.01 -0.076,0.003 -0.038,0 c 0.006,10e-4 -0.004,10e-4 -0.013,10e-4 -0.003,0 -0.006,0 -0.009,0 -0.004,0 -0.007,0 -0.007,0 l -0.101,-0.005 c -0.421,-0.025 -0.84,-0.049 -1.256,-0.072 -1.71,-0.046 -3.194,-0.313 -4.699,-0.487 -3.021,-0.552 -5.898,-1.21 -8.456,-2.102 -0.643,-0.217 -1.273,-0.43 -1.889,-0.637 -0.601,-0.242 -1.19,-0.479 -1.765,-0.71 -1.168,-0.426 -2.206,-0.971 -3.205,-1.449 -0.493,-0.247 -0.995,-0.452 -1.438,-0.714 -0.444,-0.263 -0.873,-0.515 -1.284,-0.758 -0.824,-0.47 -1.613,-0.921 -2.304,-1.351 -0.688,-0.425 -1.315,-0.788 -1.833,-1.131 -0.493,-0.361 -0.955,-0.636 -1.274,-0.91 -0.638,-0.564 -0.978,-0.864 -0.978,-0.864 l -0.236,0.185 c 0,0 0.297,0.369 0.853,1.062 0.592,0.667 1.591,1.51 2.856,2.517 0.623,0.515 1.323,1.061 2.127,1.666 0.4,0.297 0.816,0.607 1.248,0.928 0.432,0.323 0.921,0.587 1.404,0.9 0.974,0.615 2.022,1.257 3.189,1.811 0.577,0.293 1.168,0.593 1.774,0.9 0.616,0.284 1.266,0.529 1.92,0.805 2.611,1.131 5.572,1.994 8.776,2.708 1.64,0.288 3.372,0.618 5.004,0.694 0.416,0.034 0.834,0.069 1.254,0.104 l 0.158,0.013 c 0.06,0.003 0.081,0.004 0.089,0.004 0.004,0 0.004,0 0.003,-10e-4 0,0 0,0 0.005,0 0.002,0 0.005,0 0.01,0 l 0.041,-10e-4 0.083,-0.002 0.329,-0.008 0.66,-0.015 c 0.883,-0.023 1.774,-0.045 2.673,-0.068 0.001,0 0.002,0 0.003,0 0.903,0 1.781,-0.2 2.683,-0.292 0.896,-0.129 1.809,-0.215 2.705,-0.383 0.893,-0.187 1.79,-0.375 2.692,-0.565 l 1.352,-0.293 1.334,-0.363 c 1.787,-0.475 3.576,-0.972 5.342,-1.534 1.783,-0.531 3.539,-1.114 5.304,-1.684 1.754,-0.561 3.507,-1.121 5.254,-1.679 1.779,-0.527 3.503,-1.07 5.256,-1.552 3.497,-0.991 6.939,-1.965 10.269,-2.908 3.338,-0.929 6.606,-1.695 9.677,-2.517 3.071,-0.817 5.992,-1.528 8.677,-2.287 1.34,-0.391 2.604,-0.725 3.813,-1.049 1.208,-0.311 2.417,-0.527 3.491,-0.758 2.228,-0.408 4.141,-0.748 5.74,-0.769 0.136,-0.005 0.269,-0.007 0.4,-0.007 1.401,0 2.493,0.263 3.177,0.596 0.697,0.346 1.019,0.738 1.045,0.738 0.001,0 0.001,-0.001 0.002,-0.001 l 0.201,-0.224 c -0.001,0 -0.001,10e-4 -0.002,10e-4 -0.034,0 -0.286,-0.378 -1.085,-0.83 -0.793,-0.426 -2.095,-0.771 -3.739,-0.779 -0.121,-0.004 -0.244,-0.005 -0.368,-0.005" /><path
         inkscape:connector-curvature="0"
         id="path3485"
         style="fill:#686a6a;fill-opacity:1;fill-rule:nonzero;stroke:none"
         d="m 295.3781,15.486401 c -0.118,0 -0.236,10e-4 -0.356,0.002 -0.119,0.001 -0.238,0.002 -0.358,0.002 -0.095,0 -0.19,-10e-4 -0.286,-0.003 -0.386,0.038 -0.823,0.128 -1.248,0.208 -0.403,0.081 -0.943,0.191 -1.179,0.3 -0.299,0.11 -0.603,0.221 -0.91,0.333 l -0.228,0.091 -0.231,0.121 -0.017,0.011 -0.035,0.022 -0.072,0.045 -0.141,0.091 -0.569,0.374 -0.57,0.391 c -0.187,0.135 -0.323,0.304 -0.486,0.458 -0.307,0.317 -0.641,0.632 -0.922,0.973 -1.083,1.398 -1.775,3.024 -2.181,4.718 l -0.232,1.295 c -0.072,0.437 -0.083,0.971 -0.111,1.448 -0.039,0.538 0.013,0.867 0.039,1.238 l 0.044,0.554 0.013,0.191 0.008,0.039 0.017,0.079 0.033,0.157 0.067,0.314 0.27,1.249 c 0.105,0.413 0.283,0.822 0.424,1.229 0.251,0.822 0.757,1.574 1.173,2.32 0.996,1.444 2.326,2.55 3.696,3.337 1.398,0.733 2.801,1.207 4.139,1.46 0.666,0.136 1.318,0.202 1.941,0.284 0.625,0.036 1.226,0.098 1.8,0.103 0.231,0.005 0.458,0.007 0.68,0.007 0.883,0 1.695,-0.036 2.427,-0.083 0.916,-0.067 1.71,-0.147 2.362,-0.246 1.299,-0.178 2.025,-0.311 2.025,-0.311 l -0.034,-0.499 c 0,0 -0.748,-0.005 -2.035,-0.074 -1.277,-0.071 -3.122,-0.168 -5.241,-0.565 -0.531,-0.091 -1.069,-0.24 -1.629,-0.362 -0.545,-0.167 -1.115,-0.319 -1.67,-0.531 -1.115,-0.414 -2.214,-0.958 -3.189,-1.663 -0.944,-0.745 -1.717,-1.649 -2.284,-2.675 -0.208,-0.564 -0.509,-1.067 -0.605,-1.687 -0.062,-0.301 -0.162,-0.582 -0.201,-0.892 l -0.086,-0.941 -0.02,-0.233 -0.01,-0.095 0.027,-0.542 c 0.015,-0.368 0.024,-0.778 0.12,-0.968 0.083,-0.251 0.106,-0.457 0.207,-0.733 l 0.312,-0.827 c 0.502,-1.07 1.109,-2.038 1.753,-2.818 0.331,-0.345 0.642,-0.75 0.969,-0.983 l 0.237,-0.211 0.058,-0.054 0.029,-0.028 0.014,-0.013 0.008,-0.007 c 0.003,-0.002 0.004,-0.002 0.004,-0.002 -0.002,0 -0.066,0.033 -0.13,0.066 -0.029,0.015 -0.057,0.03 -0.079,0.041 l 10e-4,0 0.217,-0.115 c 0.285,-0.16 0.566,-0.319 0.845,-0.476 0.324,-0.206 0.419,-0.17 0.607,-0.264 0.175,-0.066 0.321,-0.156 0.52,-0.228 0.471,-0.105 0.913,-0.268 1.389,-0.346 0.481,-0.052 0.937,-0.189 1.405,-0.217 0.473,-0.04 0.922,-0.079 1.344,-0.115 0.865,-0.046 1.648,-0.084 2.305,-0.102 0.656,-0.035 1.183,-0.042 1.547,-0.07 0.366,-0.029 0.561,-0.045 0.561,-0.045 l 0.137,-0.48 c 0,0 -0.161,-0.113 -0.465,-0.324 -0.308,-0.203 -0.753,-0.507 -1.36,-0.824 -0.304,-0.156 -0.636,-0.345 -1.013,-0.524 -0.388,-0.16 -0.807,-0.333 -1.254,-0.518 -0.921,-0.321 -2.002,-0.643 -3.28,-0.795 -0.335,-0.052 -0.69,-0.062 -1.057,-0.062" /><path
         inkscape:connector-curvature="0"
         id="path3487"
         style="fill:#686a6a;fill-opacity:1;fill-rule:nonzero;stroke:none"
         d="m 403.9211,14.910401 c -0.605,0 -1.231,0.067 -1.863,0.117 -0.917,0.166 -1.847,0.381 -2.759,0.789 l -0.681,0.302 -0.647,0.395 c -0.428,0.272 -0.872,0.526 -1.238,0.892 -0.38,0.354 -0.767,0.663 -1.119,1.079 -0.351,0.436 -0.691,0.883 -1.015,1.332 -0.274,0.417 -0.407,0.742 -0.619,1.12 l -0.146,0.274 -0.073,0.136 c -0.003,0.006 -0.029,0.051 -0.055,0.095 -0.028,0.048 -0.055,0.097 -0.055,0.097 0.001,0 0.006,-0.009 0.017,-0.028 l -0.008,0.023 -0.02,0.046 -0.037,0.092 -0.291,0.737 c -0.328,1.007 -0.586,2.077 -0.554,3.161 -0.016,2.172 0.813,4.173 1.895,5.701 1.075,1.568 2.421,2.765 3.789,3.743 2.745,1.963 5.663,3.044 8.217,3.577 1.281,0.265 2.477,0.383 3.538,0.392 0.081,0.002 0.162,0.003 0.242,0.003 0.96,0 1.802,-0.128 2.487,-0.278 0.732,-0.168 1.336,-0.393 1.684,-0.555 0.352,-0.17 0.54,-0.261 0.54,-0.261 l -0.18,-0.467 c 0,0 -0.2,0.058 -0.576,0.168 -0.383,0.102 -0.887,0.194 -1.595,0.239 -0.181,0.011 -0.373,0.017 -0.575,0.017 -1.345,0 -3.128,-0.254 -5.083,-0.972 -2.239,-0.813 -4.723,-2.206 -6.855,-4.151 -1.061,-0.97 -2.006,-2.104 -2.673,-3.316 -0.682,-1.208 -1.002,-2.51 -0.859,-3.672 0.053,-0.586 0.258,-1.145 0.532,-1.673 l 0.208,-0.351 0.089,-0.119 0.186,-0.249 c 0.244,-0.308 0.505,-0.711 0.732,-0.938 0.215,-0.168 0.411,-0.335 0.595,-0.509 0.207,-0.169 0.487,-0.33 0.71,-0.504 0.218,-0.194 0.508,-0.279 0.748,-0.429 l 0.37,-0.21 0.406,-0.143 c 0.505,-0.266 1.086,-0.349 1.626,-0.547 0.583,-0.077 1.141,-0.237 1.737,-0.255 l 0.438,-0.037 0.219,-0.023 0.027,-0.004 0.014,-10e-4 c 0.021,0.002 0.031,0.002 0.033,0.002 0.004,0 -0.037,-0.004 -0.078,-0.008 -0.042,-0.004 -0.085,-0.009 -0.084,-0.009 0,0 0.001,0 0.003,0.001 l 0.065,10e-4 0.131,0.005 c 0.349,0.011 0.693,0.021 1.031,0.032 0.64,0.034 1.015,0.078 1.594,0.143 1.117,0.174 2.2,0.39 3.197,0.619 0.994,0.203 1.894,0.403 2.659,0.497 0.754,0.12 1.366,0.156 1.784,0.161 0.413,0.005 0.634,0.008 0.634,0.008 l 0.136,-0.481 c 0,0 -0.174,-0.127 -0.502,-0.365 -0.327,-0.226 -0.798,-0.554 -1.392,-0.99 -0.597,-0.421 -1.308,-0.95 -2.186,-1.525 -0.423,-0.305 -0.915,-0.575 -1.442,-0.882 -0.509,-0.314 -1.109,-0.6 -1.735,-0.887 -0.618,-0.277 -1.508,-0.556 -2.191,-0.745 -0.329,-0.074 -0.664,-0.15 -1.005,-0.226 l -0.128,-0.029 -0.064,-0.015 -0.215,-0.021 -0.309,-0.028 -0.626,-0.047 c -0.255,-0.033 -0.516,-0.046 -0.78,-0.046" /></g></g></svg>