<?xml version="1.0" encoding="UTF-8" standalone="no"?>
<!-- Created with Inkscape (http://www.inkscape.org/) -->

<svg
   xmlns:dc="http://purl.org/dc/elements/1.1/"
   xmlns:cc="http://creativecommons.org/ns#"
   xmlns:rdf="http://www.w3.org/1999/02/22-rdf-syntax-ns#"
   xmlns:svg="http://www.w3.org/2000/svg"
   xmlns="http://www.w3.org/2000/svg"
   xmlns:sodipodi="http://sodipodi.sourceforge.net/DTD/sodipodi-0.dtd"
   xmlns:inkscape="http://www.inkscape.org/namespaces/inkscape"
   id="svg2"
   version="1.1"
   inkscape:version="0.91 r13725"
   xml:space="preserve"
   width="192"
   height="192"
   viewBox="0 0 191.99998 191.99999"
   sodipodi:docname="O_logo_blue.svg"
   inkscape:export-filename="/home/balzer/ovms/Open-Vehicle-Monitoring-System/logo/O_logo_blue.png"
   inkscape:export-xdpi="90"
   inkscape:export-ydpi="90"><metadata
     id="metadata8"><rdf:RDF><cc:Work
         rdf:about=""><dc:format>image/svg+xml</dc:format><dc:type
           rdf:resource="http://purl.org/dc/dcmitype/StillImage" /><dc:title></dc:title></cc:Work></rdf:RDF></metadata><defs
     id="defs6" /><sodipodi:namedview
     pagecolor="#ffffff"
     bordercolor="#666666"
     borderopacity="1"
     objecttolerance="10"
     gridtolerance="10"
     guidetolerance="10"
     inkscape:pageopacity="0"
     inkscape:pageshadow="2"
     inkscape:window-width="1591"
     inkscape:window-height="993"
     id="namedview4"
     showgrid="false"
     inkscape:zoom="1.4142136"
     inkscape:cx="112.27843"
     inkscape:cy="87.946581"
     inkscape:window-x="86"
     inkscape:window-y="84"
     inkscape:window-maximized="0"
     inkscape:current-layer="g10"
     fit-margin-top="4"
     fit-margin-left="4"
     fit-margin-right="4"
     fit-margin-bottom="4"
     units="px"
     inkscape:showpageshadow="false"
     showborder="true"
     showguides="false" /><g
     id="g10"
     inkscape:groupmode="layer"
     inkscape:label="ink_ext_XXXXXX"
     transform="matrix(1.25,0,0,-1.25,-166.82711,340.81569)"><rect
       style="opacity:1;fill:#152d6c;fill-opacity:1;stroke:#000000;stroke-width:0.07999999;stroke-linecap:butt;stroke-linejoin:miter;stroke-miterlimit:4;stroke-dasharray:none;stroke-dashoffset:0;stroke-opacity:1"
       id="rect4348"
       width="153.51997"
       height="153.51999"
       x="133.50169"
       y="-272.61255"
       transform="scale(1,-1)"
       rx="18.399998"
       ry="18.399998" /><g
       id="g4195"
       transform="matrix(1.6960555,0,0,1.6960555,-77.429412,-73.873248)"><path
         d="m 180.1229,159.94525 c 0,-5.81537 -4.71505,-10.53042 -10.53042,-10.53042 -5.81538,0 -10.52931,4.71505 -10.52931,10.53042 0,5.81426 4.71393,10.52931 10.52931,10.52931 5.81537,0 10.53042,-4.71505 10.53042,-10.52931"
         style="fill:#8d8b8b;fill-opacity:1;fill-rule:evenodd;stroke:none"
         id="path42"
         inkscape:connector-curvature="0" /><path
         d="m 191.39429,183.36473 -44.44472,-0.03 c 0,0 -10.17774,11.66746 -10.28788,12.36504 l 65.92388,0.0456 -11.19128,-12.38062 z m -53.77802,-61.11216 -0.84333,47.13835 12.51413,0.37716 0.79771,-36.41645 40.12463,-0.3449 1.20602,35.473 10.55378,0.009 -1.16152,-46.19044 -63.19142,-0.0456"
         style="fill:#a8a8a6;fill-opacity:1;fill-rule:nonzero;stroke:none"
         id="path96"
         inkscape:connector-curvature="0" /><path
         d="m 189.72878,183.6985 -42.876,-0.0289 c 0,0 -9.81838,11.4138 -9.92519,12.09691 l 63.59863,0.0434 -10.79744,-12.11137 z m -51.87887,-59.78498 -0.81885,45.18925 10.18107,0.004 0.77324,-34.69977 40.60081,0.0278 1.16374,34.70199 10.18107,0.009 -1.12035,-45.18691 -60.96073,-0.0457"
         style="fill:#ffffff;fill-opacity:1;fill-rule:nonzero;stroke:none"
         id="path104"
         inkscape:connector-curvature="0" /></g></g></svg>